<svg id="Arrow_Right" data-name="Arrow Right" xmlns="http://www.w3.org/2000/svg" width="24.954" height="18.029" viewBox="0 0 24.954 18.029">
  <path id="Arrow_Right-2" data-name="Arrow Right" d="M15.239,17.729a1.023,1.023,0,0,1,0-1.446l6.268-6.268H1a1,1,0,1,1,0-2H21.51L15.239,1.745A1.023,1.023,0,0,1,16.685.3l7.951,7.952a1.019,1.019,0,0,1,.238.374,1,1,0,0,1-.009.8,1.021,1.021,0,0,1-.229.349l-7.951,7.952a1.023,1.023,0,0,1-1.446,0Z" transform="translate(24.954 18.029) rotate(180)" fill="#fff"/>
</svg>
