<svg xmlns="http://www.w3.org/2000/svg" width="35" height="24" viewBox="0 0 35 24"><path d="M753.094,612.534a6.245,6.245,0,0,0-4.664-1.952h-4.8v-2.7a.883.883,0,0,0-.88-.881H720.88a.883.883,0,0,0-.88.881V627.25a.883.883,0,0,0,.88.881h3.505a3.461,3.461,0,0,0,6.82,0h13.471a3.461,3.461,0,0,0,6.82,0h2.625a.883.883,0,0,0,.88-.881v-9.1A8.114,8.114,0,0,0,753.094,612.534Zm-31.334-3.772h20.107v17.615H731.051a3.456,3.456,0,0,0-6.512,0H721.76Zm6.035,20.477a1.7,1.7,0,1,1,1.7-1.7A1.7,1.7,0,0,1,727.795,629.239Zm20.29,0a1.7,1.7,0,1,1,1.7-1.7A1.7,1.7,0,0,1,748.085,629.239Zm5.148-2.87h-1.892a3.456,3.456,0,0,0-6.512,0h-1.2V612.343h4.8c2.962,0,4.8,2.224,4.8,5.805v8.22Z" transform="translate(-720 -607)" fill="#fff"/></svg>